<svg xmlns="http://www.w3.org/2000/svg" width="223" height="59" viewBox="0 0 223 59">
  <defs>
    <style>
      .cls-1 {
        fill: #fff;
        opacity: 0;
      }

      .cls-2, .cls-6 {
        fill: #22252a;
      }

      .cls-2, .cls-3, .cls-4 {
        fill-rule: evenodd;
      }

      .cls-3 {
        fill: #222529;
      }

      .cls-4, .cls-5 {
        fill: #21c17a;
      }

      .cls-5 {
        font-size: 20px;
        font-family: HiraginoSansGB-W6, Hiragino Sans GB;
      }

      .cls-6 {
        font-size: 16px;
        font-family: HiraginoSansGB-W3, Hiragino Sans GB;
      }
    </style>
  </defs>
  <g id="logo-head" transform="translate(-118 -860)">
    <g id="组_21429" data-name="组 21429" transform="translate(118 860)">
      <rect id="矩形_3482" data-name="矩形 3482" class="cls-1" width="59" height="59"/>
      <g id="组_21428" data-name="组 21428" transform="translate(3.226)">
        <path id="路径_14527" data-name="路径 14527" class="cls-2" d="M44.505,3.171,50,2.952a5.5,5.5,0,0,0-1.979,4.377V30.965l3.518-.438c-3.078,1.313-3.518,2.845-3.518,5.909v3.939a4.892,4.892,0,0,0,1.759,3.283l-1.759-.438v4.6H46.044v-4.6l-1.979.438a4.479,4.479,0,0,0,1.979-3.064V36.436c0-2.626,0-4.158-2.858-5.471l2.858-.438V7.329c0-1.751-.66-3.72-1.539-4.158" transform="translate(-20.976 6.021)"/>
        <path id="路径_14528" data-name="路径 14528" class="cls-2" d="M39.871,34.2V15.812H41.63V34.2a2.5,2.5,0,0,1,1.759.657c1.759,1.094,2.419.438,4.617-.875l2.858-1.532,27.7-15.976a6.365,6.365,0,0,1-.44-1.97,1.634,1.634,0,0,1,.22-1.094L68.235,6.839c-1.539-.875-2.419-.657-3.958-.219L61.858,2.9l.88-1.532,4.178.657a3.831,3.831,0,0,0,2.2,3.283l9.894,6.347a5.01,5.01,0,0,1,4.178-2.189A5.1,5.1,0,0,1,88.243,14.5a5.142,5.142,0,0,1-4.178,4.815v19.7H82.307v-19.7A5.024,5.024,0,0,1,79.668,18L51.744,33.977l-3.078,1.751c-1.759,1.094-2.858,1.532-2.858,3.283a2.764,2.764,0,0,1-.22,1.313l9.015,5.69c1.319.875,3.3,1.532,4.837.657l3.518,4.6-.88,1.532L57.021,51.7c-.44-1.97-1.979-3.283-3.518-4.377l-8.575-5.252a5.83,5.83,0,0,1-4.178,1.97,4.978,4.978,0,0,1-.88-9.848" transform="translate(-35.913 2.79)"/>
        <path id="路径_14529" data-name="路径 14529" class="cls-2" d="M46.733,7.416l-1.1,4.158L50.41,15.03a6.92,6.92,0,0,1,2.7-5.645l-.88-1.532a8.154,8.154,0,0,1-5.5-.438" transform="translate(-15.948 15.126)"/>
        <path id="路径_14530" data-name="路径 14530" class="cls-2" d="M46.34,5.328c0,3.72-1.759,5.252-3.3,5.909l6.816,2.407L51.4,11.237a7.16,7.16,0,0,1-3.078-5.909Z" transform="translate(-21.271 10.867)"/>
        <path id="路径_14531" data-name="路径 14531" class="cls-2" d="M47.625,16.87c-1.759-.438-3.738-1.094-5.717,0l-1.1-1.313a6.9,6.9,0,0,0,2.639-5.909Z" transform="translate(-25.857 19.678)"/>
        <path id="路径_14532" data-name="路径 14532" class="cls-2" d="M36.561,7.131a5.244,5.244,0,0,1,1.979,3.5H40.3A4.141,4.141,0,0,1,42.278,7.35L38.1,6.912Z" transform="translate(-34.582 14.098)"/>
        <path id="路径_14533" data-name="路径 14533" class="cls-3" d="M52.584,11.16h1.759c-.22,1.313,1.1,3.283,1.759,3.72l-5.717.219a5.146,5.146,0,0,0,2.2-3.939" transform="translate(-6.19 22.762)"/>
        <path id="路径_14534" data-name="路径 14534" class="cls-2" d="M49.534,4.176c1.1.657,3.518.875,4.4.219l-2.2,5.471a5.5,5.5,0,0,0-2.858-3.939Z" transform="translate(-9.293 8.517)"/>
        <path id="路径_14535" data-name="路径 14535" class="cls-2" d="M50.921,5.832c0,1.313-1.319,2.407-1.759,2.845l.22,1.97a3.762,3.762,0,0,1,4.4-.875l.44-2.407Z" transform="translate(-8.702 11.895)"/>
        <path id="路径_14536" data-name="路径 14536" class="cls-2" d="M50.59,8.062l2.892-1.438L56,7.67a4.021,4.021,0,0,0-2.083,3.769H52.163c0-1.313-.253-2.939-1.573-3.377" transform="translate(-5.769 13.51)"/>
        <path id="路径_14537" data-name="路径 14537" class="cls-2" d="M41.076,13.57A5.388,5.388,0,0,0,43.6,17.275L42.835,18.6a4.905,4.905,0,0,0-4.617,0Z" transform="translate(-31.179 27.678)"/>
        <path id="路径_14538" data-name="路径 14538" class="cls-2" d="M38.581,11.422a4.552,4.552,0,0,1-2.031,4.289l3.518,1.094,2.064-1.234c-.916-.629-1.841-2.705-1.841-4.678Z" transform="translate(-34.605 22.218)"/>
        <path id="路径_14539" data-name="路径 14539" class="cls-4" d="M45.243,16.272a3.69,3.69,0,0,0,3.958,0l.88,1.532a5.546,5.546,0,0,0-2.419,3.72L45.9,19.992Z" transform="translate(-16.751 33.189)"/>
        <path id="路径_14540" data-name="路径 14540" class="cls-4" d="M47.883,16.056A4.918,4.918,0,0,1,52.72,21.09,4.869,4.869,0,0,1,47.883,25.9a4.926,4.926,0,1,1,0-9.848" transform="translate(-21.715 32.748)"/>
        <path id="路径_14541" data-name="路径 14541" class="cls-4" d="M50.045,12.24l-1.1,1.532c1.319.875,2.639,1.97,2.419,3.283l3.078-4.815a4.474,4.474,0,0,1-4.4,0" transform="translate(-9.146 24.965)"/>
        <path id="路径_14542" data-name="路径 14542" class="cls-4" d="M51.66,13.727l2.419,2.189V18.1a6.45,6.45,0,0,0-4.4.657l-.88-1.532c.88-.657,3.078-1.532,2.858-3.5" transform="translate(-9.441 27.998)"/>
        <path id="路径_14543" data-name="路径 14543" class="cls-4" d="M54.8,12.1a5.257,5.257,0,0,1,5.057,5.034A5.1,5.1,0,0,1,54.8,22.163a4.964,4.964,0,0,1-5.057-5.034A5.1,5.1,0,0,1,54.8,12.1" transform="translate(-7.519 24.671)"/>
        <path id="路径_14544" data-name="路径 14544" class="cls-4" d="M50.767,9.648a6.374,6.374,0,0,0,2.639,5.909l-.88,1.532a6.862,6.862,0,0,0-7.036.438l1.1-6.128Z" transform="translate(-16.244 19.678)"/>
        <path id="路径_14545" data-name="路径 14545" class="cls-4" d="M41.473,7.38l-.879,1.532a6.205,6.205,0,0,1,3.3,6.128l4.617-2.407.22-5.471a7.117,7.117,0,0,1-7.256.219" transform="translate(-26.299 14.606)"/>
        <path id="路径_14546" data-name="路径 14546" class="cls-4" d="M50.249,6.912a8.426,8.426,0,0,1,0,16.852,8.427,8.427,0,1,1,0-16.852" transform="translate(-24.081 14.098)"/>
        <path id="路径_14547" data-name="路径 14547" class="cls-4" d="M37.858,13.48l1.1,1.532,2.858-.219c0-1.313.66-1.97,1.979-2.845L51.71,7.133c1.539-.875,2.638-1.094,3.738-.438l3.518-3.939-1.1-1.532L53.029,2.537a3.373,3.373,0,0,1-1.979,2.845l-8.135,5.034c-1.539.875-2.858.657-3.518,0Z" transform="translate(-31.918 2.496)"/>
        <path id="路径_14548" data-name="路径 14548" class="cls-4" d="M47.883,0A4.918,4.918,0,0,1,52.72,5.034a4.948,4.948,0,1,1-9.894,0A4.964,4.964,0,0,1,47.883,0" transform="translate(-21.715 0)"/>
        <path id="路径_14549" data-name="路径 14549" class="cls-4" d="M40.751,4.032a4.964,4.964,0,0,1,5.057,5.034,4.948,4.948,0,1,1-9.894,0,4.918,4.918,0,0,1,4.837-5.034" transform="translate(-35.911 8.224)"/>
        <path id="路径_14550" data-name="路径 14550" class="cls-4" d="M41.108,5.4c-.22,1.313,1.1,3.283,2.419,3.939l-.88,1.532c-1.1-.657-2.858-1.532-4.4-.219Z" transform="translate(-31.113 11.014)"/>
        <path id="路径_14551" data-name="路径 14551" class="cls-4" d="M39.69,8.228,42.448,9.86l.88-1.532L40.57,6.7Z" transform="translate(-28.155 13.657)"/>
        <path id="路径_14552" data-name="路径 14552" class="cls-4" d="M47.793,13.124l3.518,1.97,1.1-1.532-3.738-1.97Z" transform="translate(-11.513 23.643)"/>
        <path id="路径_14553" data-name="路径 14553" class="cls-4" d="M46.539,19.115l6.911-4.237.879,1.535-6.911,4.234Z" transform="translate(-14.09 30.346)"/>
      </g>
    </g>
    <text id="Explorer_Boundary_Network" data-name="Explorer
Boundary Network" class="cls-5" transform="translate(192 885)"><tspan x="0" y="0">Explorer</tspan><tspan class="cls-6"><tspan x="0" y="24">Boundary Network</tspan></tspan></text>
  </g>
</svg>
